# AST/ASF file generated using VICON BodyLanguage
# -----------------------------------------------
:version 1.10
:name VICON
:units
  mass 1.0
  length 0.45
  angle deg
:documentation
   .ast/.asf automatically generated from VICON data using
   VICON BodyBuilder and BodyLanguage model FoxedUp or BRILLIANT.MOD
:root
   order TX TY TZ RX RY RZ
   axis XYZ
   position 0 0 0  
   orientation 0 -0 0 
:bonedata
  begin
     id 1 
     name lhipjoint
     direction 0.515797 -0.759363 0.396637 
     length 2.47888 
     axis 0 -0 0  XYZ
  end
  begin
     id 2 
     name lfemur
     direction 0.34202 -0.939693 0  
     length 6.81885  
     axis 0 -0 20  XYZ
    dof rx ry rz
    limits (-160.0 20.0)
           (-70.0 70.0)
           (-60.0 70.0)
  end
  begin
     id 3 
     name ltibia
     direction 0.342037 -0.939687 0   
     length 7.89258   
     axis 0 -0 20   XYZ
    dof rx
    limits (-10.0 170.0)
  end
  begin
     id 4 
     name lfoot
     direction 0.173497 -0.476678 0.861787   
     length 2.51543   
     axis -90 -1.13533e-015 20   XYZ
    dof rx rz
    limits (-45.0 90.0)
           (-70.0 20.0)
  end
  begin
     id 5 
     name ltoes
     direction 1.53564e-011 -4.21897e-011 1   
     length 1.21388   
     axis -90 -1.13533e-015 20   XYZ
    dof rx
    limits (-90.0 20.0)
  end
  begin
     id 6 
     name rhipjoint
     direction -0.489454 -0.772941 0.403729   
     length 2.43534  
     axis 0 -0 0  XYZ 
  end
  begin
     id 7 
     name rfemur
     direction -0.34202 -0.939693 0   
     length 7.10357   
     axis 0 -0 -20   XYZ
    dof rx ry rz
    limits (-160.0 20.0)
           (-70.0 70.0)
           (-70.0 60.0)
  end
  begin
     id 8 
     name rtibia
     direction -0.34202 -0.939693 0   
     length 9.16127   
     axis 0 -0 -20   XYZ
    dof rx
    limits (-10.0 170.0)
 end
 begin
     id 9 
     name rfoot
     direction -0.270974 -0.748671 0.605033   
     length 1.74894  
     axis -90 1.13533e-015 -20   XYZ
    dof rx rz
    limits (-45.0 90.0)
           (-20.0 70.0)
  end
  begin
     id 10 
     name rtoes
     direction -1.53557e-011 -4.21759e-011 1   
     length 0.787585   
     axis -90 1.13533e-015 -20   XYZ
    dof rx
    limits (-90.0 20.0)
  end
  begin
     id 11 
     name lowerback
     direction -0.0140249 0.999561 0.0260968   
     length 2.16963   
     axis 0 -0 0   XYZ
    dof rx ry rz
    limits (-20.0 45.0)
           (-30.0 30.0)
           (-30.0 30.0)
  end
  begin
     id 12 
     name upperback
     direction 0.00860018 0.999959 -0.002711   
     length 2.1726   
     axis 0 -0 0   XYZ
    dof rx ry rz
    limits (-20.0 45.0)
           (-30.0 30.0)
           (-30.0 30.0)
  end
  begin
     id 13 
     name thorax
     direction 0.015211 0.999782 -0.0143191   
     length 2.17061   
     axis 0 -0 0   XYZ
    dof rx ry rz
    limits (-20.0 45.0)
           (-30.0 30.0)
           (-30.0 30.0)
  end
  begin
     id 14 
     name lowerneck
     direction -0.0140143 0.999447 0.030145   
     length 2.26749   
     axis 0 -0 0   XYZ
    dof rx ry rz
    limits (-20.0 45.0)
           (-30.0 30.0)
           (-30.0 30.0)
  end
  begin
     id 15 
     name upperneck
     direction 0.118062 0.961438 -0.248392   
     length 2.22728   
     axis 0 -0 0   XYZ
    dof rx ry rz
    limits (-20.0 45.0)
           (-30.0 30.0)
           (-30.0 30.0)
  end
  begin
     id 16
     name head
     direction 0.0431885 0.9954 -0.085514  
     length 2.28786  
     axis 0 -0 0   XYZ
    dof rx ry rz
    limits (-20.0 45.0)
           (-30.0 30.0)
           (-30.0 30.0)
  end
  begin
     id 17 
     name lclavicle
     direction 0.912126 0.409548 0.0172323  
     length 4.31571  
     axis 0 -0 0   XYZ
    dof ry rz
    limits (-20.0 10.0)
           (0.0 20.0)
  end
  begin
     id 18 
     name lhumerus
     direction 1 -4.48977e-011 1.93091e-027   
     length 5.13658   
     axis 180 -30 -90   XYZ
    dof rx ry rz
    limits (-60.0 90.0)
           (-90.0 90.0)
           (-90.0 90.0)
  end
  begin
     id 19
     name lradius
     direction 1 -4.48916e-011 6.84018e-027   
     length 3.22473   
     axis 180 -30 -90   XYZ
    dof rx
    limits (-10.0 170.0)
  end
  begin
     id 20
     name lwrist
     direction 1 -4.48987e-011 7.01981e-027   
     length 1.61236   
     axis -4.37994e-015 90 90   XYZ
    dof ry
    limits (-180.0 0.0)
 end
  begin
     id 21 
     name lhand
     direction 1 -4.49037e-011 1.40335e-026   
     length 0.936406   
     axis -8.96029e-015 90 90   XYZ
    dof rx rz
    limits (-90.0 90.0)
           (-45.0 45.0)
  end
  begin
     id 22 
     name lfingers
     direction 1 -4.48886e-011 2.8104e-026   
     length 0.754955   
     axis -1.79203e-014 90 90   XYZ
    dof rx
    limits (0.0 90.0)
  end
  begin
     id 23
     name lthumb
     direction 0.707107 -6.34937e-011 0.707107   
     length 1.08397   
     axis -90 45 -4.48555e-014   XYZ
    dof rx rz
    limits (-45.0 45.0)
           (-45.0 45.0)
  end
  begin
     id 24 
     name rclavicle
     direction -0.947962 0.317997 0.0156638   
     length 4.86918  
     axis 0 -0 0   XYZ 
    dof ry rz
    limits (-10.0 20.0)
           (-20.0 0.0)
  end
  begin
     id 25 
     name rhumerus
     direction -1 -4.48951e-011 2.80534e-018  
     length 5.60911   
     axis 180 30 90   XYZ
    dof rx ry rz
    limits (-90.0 60.0)
           (-90.0 90.0)
           (-90.0 90.0)
  end
  begin
     id 26 
     name rradius
     direction -1 -4.4898e-011 2.11315e-027   
     length 3.38704   
     axis 180 30 90   XYZ
    dof rx
    limits (-10.0 170.0)
  end
  begin
     id 27 
     name rwrist
     direction -1 -4.48933e-011 7.02314e-027   
     length 1.69352   
     axis -4.37994e-015 -90 -90   XYZ
    dof ry
    limits (-180.0 0.0)
  end
  begin
     id 28
     name rhand
     direction -1 -4.48937e-011 1.40458e-026   
     length 0.755878   
     axis -8.96029e-015 -90 -90   XYZ
    dof rx rz
    limits (-90.0 90.0)
           (-45.0 45.0)
  end
  begin
     id 29
     name rfingers
     direction -1 -4.4901e-011 2.80737e-026   
     length 0.609409   
     axis -1.79203e-014 -90 -90   XYZ
    dof rx
    limits (0.0 90.0)
  end
  begin
     id 30
     name rthumb
     direction -0.707107 -6.34968e-011 0.707107   
     length 0.874992   
     axis -90 -45 4.48555e-014   XYZ
    dof rx rz
    limits (-45.0 45.0)
           (-45.0 45.0)
  end
:hierarchy
  begin
    root lhipjoint rhipjoint lowerback
    lhipjoint lfemur
    lfemur ltibia
    ltibia lfoot
    lfoot ltoes
    rhipjoint rfemur
    rfemur rtibia
    rtibia rfoot
    rfoot rtoes
    lowerback upperback
    upperback thorax
    thorax lowerneck lclavicle rclavicle
    lowerneck upperneck
    upperneck head
    lclavicle lhumerus
    lhumerus lradius
    lradius lwrist
    lwrist lhand lthumb
    lhand lfingers
    rclavicle rhumerus
    rhumerus rradius
    rradius rwrist
    rwrist rhand rthumb
    rhand rfingers
  end

#!OML:ASF C:\ViconDB\ViconDB\414\Spring2016\041811\Spring2016.ASF
:FULLY-SPECIFIED
:DEGREES
124
root 10.2934 17.3682 14.7737 -167.222 -1.55273 175.058
lowerback 7.93099 1.97055 -6.18008
upperback 2.08894 1.78702 -2.51771
thorax -2.39743 0.797582 0.686077
lowerneck -11.2055 0.303139 -8.15947
upperneck 17.1451 -0.991463 12.5232
head 7.14564 -0.146461 5.37578
rclavicle -2.11706e-014 -3.16068e-014
rhumerus -44.8712 0.210672 -87.9806
rradius 85.0517
rwrist 8.56489
rhand -42.2827 -17.4757
rfingers 7.12502
rthumb -15.1675 -46.8999
lclavicle -2.11706e-014 -3.16068e-014
lhumerus -52.7954 -19.6904 95.3843
lradius 63.6773
lwrist -5.82859
lhand -37.573 19.4945
lfingers 7.12502
lthumb -10.6274 49.2057
rfemur -26.1202 -10.1014 11.8684
rtibia 85.5304
rfoot -153.371 -2.84223
rtoes -15.6033
lfemur -27.67 1.47476 -26.9072
ltibia 52.7792
lfoot -22.1203 -9.53533
ltoes -17.8324
125
root 10.2705 17.3188 14.4994 -167.324 -1.99342 174.812
lowerback 8.25555 1.63567 -6.06982
upperback 2.03949 1.2868 -2.84046
thorax -2.59158 0.543251 0.334804
lowerneck -11.2548 0.588243 -7.87581
upperneck 17.285 -0.725351 12.7078
head 7.16818 0.0056801 5.4164
rclavicle 0 3.73715e-014
rhumerus -46.4003 -1.31122 -88.0909
rradius 81.9622
rwrist 8.44884
rhand -41.4358 -17.4143
rfingers 7.12502
rthumb -14.3516 -46.8982
lclavicle 0 3.73715e-014
lhumerus -49.5552 -20.3085 94.4747
lradius 63.0511
lwrist -7.17884
lhand -37.8389 19.4175
lfingers 7.12502
lthumb -10.8839 49.1155
rfemur -29.1862 -10.9254 11.9969
rtibia 88.2024
rfoot -154.941 -1.35564
rtoes -15.3815
lfemur -26.3446 1.01854 -27.0691
ltibia 52.564
lfoot -22.5892 -9.89835
ltoes -18.3122
126
root 10.2465 17.269 14.2243 -167.409 -2.52894 174.784
lowerback 8.36309 1.32417 -6.19478
upperback 2.15678 0.864451 -2.67029
thorax -2.51211 0.330509 0.625498
lowerneck -11.5937 0.752712 -8.01938
upperneck 17.398 -0.451553 12.7299
head 7.23382 0.14488 5.48254
rclavicle -1.74931e-014 2.78299e-015
rhumerus -47.8267 -2.22421 -87.578
rradius 79.5446
rwrist 7.86561
rhand -40.3597 -17.5843
rfingers 7.12502
rthumb -13.3145 -47.1389
lclavicle -1.74931e-014 2.78299e-015
lhumerus -46.1472 -20.5361 94.0459
lradius 62.8948
lwrist -8.57969
lhand -37.9385 19.2735
lfingers 7.12502
lthumb -10.9799 48.9664
rfemur -32.3185 -11.7517 12.4935
rtibia 90.4381
rfoot -156.241 -0.0626721
rtoes -13.8597
lfemur -24.94 0.57484 -26.9789
ltibia 52.2273
lfoot -22.7203 -10.201
ltoes -18.921
127
root 10.2254 17.2332 13.9379 -167.469 -3.05189 174.749
lowerback 8.58841 0.963806 -6.29189
upperback 2.14554 0.36085 -2.58054
thorax -2.62144 0.0843626 0.824252
lowerneck -11.8009 1.02892 -8.05574
upperneck 17.5422 -0.0868362 12.8339
head 7.27414 0.330871 5.56465
rclavicle -1.08338e-014 4.77083e-015
rhumerus -49.5375 -2.61941 -87.3356
rradius 77.6495
rwrist 7.09261
rhand -39.5341 -17.3307
rfingers 7.12502
rthumb -12.5187 -46.9357
lclavicle -1.08338e-014 4.77083e-015
lhumerus -43.1109 -20.6466 93.4696
lradius 63.3731
lwrist -9.43541
lhand -38.0708 18.5792
lfingers 7.12502
lthumb -11.1075 48.2653
rfemur -35.365 -12.5107 13.0856
rtibia 92.1476
rfoot -157.233 0.982354
rtoes -13.2309
lfemur -23.4982 0.182079 -26.873
ltibia 51.7311
lfoot -22.8783 -10.53
ltoes -19.2469
128
root 10.2081 17.2028 13.6542 -167.498 -3.85173 174.794
lowerback 8.99294 0.520226 -6.1863
upperback 2.04549 -0.249355 -2.50141
thorax -2.91307 -0.20662 0.913463
lowerneck -11.9893 1.30703 -7.92255
upperneck 17.7413 0.226593 12.9424
head 7.33533 0.499207 5.61593
rclavicle 4.07509e-015 -1.03368e-014
rhumerus -51.5331 -2.66783 -87.3036
rradius 76.3443
rwrist 6.96667
rhand -39.4834 -17.1849
rfingers 7.12502
rthumb -12.4697 -46.7929
lclavicle 4.07509e-015 -1.03368e-014
lhumerus -40.498 -20.6501 93.0539
lradius 64.3731
lwrist -10.6799
lhand -38.1738 18.2955
lfingers 7.12502
lthumb -11.2069 47.9762
rfemur -38.4264 -13.4149 14.0281
rtibia 93.3825
rfoot -158.44 1.70189
rtoes -12.1814
lfemur -22.0286 -0.403875 -26.6126
ltibia 51.0634
lfoot -23.0716 -11.0082
ltoes -19.8451
129
root 10.1836 17.1757 13.3425 -167.454 -4.44854 174.621
lowerback 8.96725 0.148271 -6.35125
upperback 2.00579 -0.748804 -2.40982
thorax -2.906 -0.449601 1.1566
lowerneck -12.0518 1.52836 -8.04674
upperneck 17.7802 0.528207 13.087
head 7.32104 0.648325 5.71569
rclavicle 4.96962e-016 -3.97569e-016
rhumerus -53.6883 -2.32027 -87.2456
rradius 75.928
rwrist 6.64352
rhand -39.3956 -17.33
rfingers 7.12502
rthumb -12.3851 -46.9431
lclavicle 4.96962e-016 -3.97569e-016
lhumerus -38.2071 -20.6823 92.9034
lradius 66.069
lwrist -11.627
lhand -38.0406 18.1421
lfingers 7.12502
lthumb -11.0784 47.8298
rfemur -41.3386 -14.1817 14.6651
rtibia 94.0801
rfoot -159.501 2.25388
rtoes -11.0632
lfemur -20.3059 -0.969486 -26.7147
ltibia 50.1217
lfoot -23.3719 -11.1878
ltoes -20.1771
130
root 10.1586 17.1662 13.0086 -167.458 -4.85648 174.846
lowerback 8.81173 -0.15578 -6.19345
upperback 1.99033 -1.09786 -2.18757
thorax -2.81006 -0.617136 1.33566
lowerneck -12.1216 1.72129 -8.09734
upperneck 17.754 0.8401 13.0152
head 7.2882 0.794512 5.72755
rclavicle 6.36111e-015 3.22031e-014
rhumerus -55.6983 -1.69798 -87.263
rradius 75.3238
rwrist 6.6226
rhand -39.4442 -16.8614
rfingers 7.12502
rthumb -12.4319 -46.4716
lclavicle 6.36111e-015 3.22031e-014
lhumerus -36.2407 -20.9567 92.9069
lradius 68.3331
lwrist -11.9716
lhand -37.6315 17.61
lfingers 7.12502
lthumb -10.6839 47.3183
rfemur -43.9323 -14.4255 15.8582
rtibia 94.0686
rfoot -160.813 2.56218
rtoes -10.2507
lfemur -18.4092 -1.43233 -26.4019
ltibia 48.931
lfoot -23.6118 -11.1771
ltoes -20.8013
131
root 10.1324 17.158 12.673 -167.28 -5.4682 174.84
lowerback 8.5538 -0.551498 -6.19658
upperback 1.91288 -1.58313 -2.03778
thorax -2.7091 -0.851336 1.5398
lowerneck -12.2515 1.95078 -7.95232
upperneck 17.8661 1.14947 12.8984
head 7.31398 0.946517 5.69601
rclavicle 1.98785e-016 -1.47101e-014
rhumerus -58.2071 -1.14754 -87.3976
rradius 75.9837
rwrist 7.14819
rhand -39.0633 -16.8744
rfingers 7.12502
rthumb -12.0647 -46.5067
lclavicle 1.98785e-016 -1.47101e-014
lhumerus -34.6807 -21.618 92.9294
lradius 71.1494
lwrist -11.8393
lhand -37.7023 17.5817
lfingers 7.12502
lthumb -10.7521 47.2866
rfemur -46.531 -14.8616 16.8824
rtibia 93.6012
rfoot -162.266 2.86737
rtoes -10.5608
lfemur -16.5192 -2.26599 -26.3564
ltibia 47.4688
lfoot -23.5841 -10.8782
ltoes -21.8917
132
root 10.0979 17.1638 12.3318 -167.093 -6.01077 174.73
lowerback 8.34592 -0.962138 -6.21403
upperback 1.82865 -2.09404 -1.86687
thorax -2.63676 -1.09757 1.77366
lowerneck -12.5051 2.15871 -8.05061
upperneck 18.0113 1.48082 12.8459
head 7.36705 1.10513 5.73557
rclavicle 3.1408e-014 7.95139e-015
rhumerus -60.2317 -0.157816 -87.6998
rradius 76.3967
rwrist 6.67813
rhand -38.6564 -16.6168
rfingers 7.12502
rthumb -11.6723 -46.2716
lclavicle 3.1408e-014 7.95139e-015
lhumerus -33.4223 -22.4647 93.0399
lradius 74.3658
lwrist -11.6547
lhand -37.5864 17.2308
lfingers 7.12502
lthumb -10.6404 46.9414
rfemur -48.8562 -15.0868 17.7237
rtibia 92.5281
rfoot -163.661 3.13467
rtoes -8.74757
lfemur -14.5475 -3.47313 -26.4789
ltibia 45.8306
lfoot -23.29 -10.3558
ltoes -21.9825
133
root 10.0797 17.1925 11.9665 -167.03 -6.89849 175.213
lowerback 8.10345 -1.45371 -5.65215
upperback 1.77417 -2.63831 -1.50044
thorax -2.52379 -1.35914 1.88439
lowerneck -12.6397 2.35656 -8.02997
upperneck 18.0506 1.82023 12.6119
head 7.36818 1.25873 5.68654
rclavicle 8.74653e-015 -2.3059e-014
rhumerus -62.4531 0.596272 -88.072
rradius 77.1832
rwrist 6.33546
rhand -38.351 -16.4889
rfingers 7.12502
rthumb -11.3778 -46.1603
lclavicle 8.74653e-015 -2.3059e-014
lhumerus -32.4496 -23.542 93.0791
lradius 77.8296
lwrist -11.689
lhand -37.5101 17.1002
lfingers 7.12502
lthumb -10.5667 46.8146
rfemur -50.5705 -15.264 19.4141
rtibia 90.6608
rfoot -165.094 3.05876
rtoes -8.35086
lfemur -12.3881 -4.947 -25.8446
ltibia 44.0347
lfoot -22.5847 -9.90986
ltoes -21.9193
134
root 10.0582 17.2425 11.5826 -167.067 -7.56724 175.488
lowerback 8.01351 -1.92345 -5.43749
upperback 1.67782 -3.20534 -1.13209
thorax -2.52174 -1.62939 2.19583
lowerneck -12.8995 2.6184 -7.9625
upperneck 18.3206 2.24618 12.2549
head 7.46051 1.44667 5.60776
rclavicle 9.64106e-015 1.51076e-014
rhumerus -64.6631 1.65845 -88.5651
rradius 78.2409
rwrist 5.07725
rhand -38.0197 -16.4842
rfingers 7.12502
rthumb -11.0583 -46.1729
lclavicle 9.64106e-015 1.51076e-014
lhumerus -31.6737 -24.2793 92.9562
lradius 81.19
lwrist -12.5952
lhand -37.4089 16.7424
lfingers 7.12502
lthumb -10.4691 46.4617
rfemur -51.7074 -15.2385 20.6768
rtibia 88.1067
rfoot -166.374 3.01722
rtoes -7.5917
lfemur -10.0311 -6.54403 -25.5406
ltibia 42.1279
lfoot -21.6986 -9.16451
ltoes -22.6913
135
root 10.0289 17.2877 11.2051 -166.774 -8.04829 175.495
lowerback 7.92882 -2.37879 -5.13528
upperback 1.31639 -3.76513 -1.05243
thorax -2.82031 -1.88422 2.16737
lowerneck -13.1404 2.95093 -7.70285
upperneck 18.7701 2.65333 12.0523
head 7.61231 1.63984 5.55372
rclavicle -4.00551e-014 -3.18055e-014
rhumerus -67.0379 2.35389 -89.2505
rradius 79.3153
rwrist 3.9474
rhand -37.6747 -16.4603
rfingers 7.12502
rthumb -10.7255 -46.1665
lclavicle -4.00551e-014 -3.18055e-014
lhumerus -31.5791 -25.8268 92.8629
lradius 84.8622
lwrist -11.4073
lhand -37.6582 16.4841
lfingers 7.12502
lthumb -10.7095 46.1911
rfemur -53.1189 -15.0653 21.5477
rtibia 85.2832
rfoot -167.274 3.27745
rtoes -7.81395
lfemur -8.0131 -8.11378 -25.6159
ltibia 40.1225
lfoot -20.3545 -8.283
ltoes -23.7958
136
root 10.0098 17.356 10.7991 -166.669 -8.37369 175.847
lowerback 7.6422 -2.67222 -4.9386
upperback 1.10316 -4.08753 -0.67605
thorax -2.84318 -2.0291 2.46537
lowerneck -13.3848 3.19382 -7.64051
upperneck 19.1981 2.99163 11.8516
head 7.76397 1.78871 5.52919
rclavicle -1.88845e-014 -2.38542e-015
rhumerus -69.2235 2.81281 -89.4738
rradius 80.3349
rwrist 3.34675
rhand -36.8226 -16.4443
rfingers 7.12502
rthumb -9.90352 -46.1913
lclavicle -1.88845e-014 -2.38542e-015
lhumerus -31.5036 -27.1529 92.9605
lradius 88.2855
lwrist -11.4398
lhand -37.97 16.1135
lfingers 7.12502
lthumb -11.0103 45.8047
rfemur -53.764 -14.5021 22.5796
rtibia 81.8931
rfoot -168.041 3.90864
rtoes -8.07602
lfemur -5.8121 -9.42564 -25.3362
ltibia 38.1338
lfoot -18.7025 -7.41745
ltoes -24.7655
137
root 9.99353 17.4276 10.3861 -166.765 -8.58112 176.312
lowerback 7.58114 -2.93026 -4.63063
upperback 0.91892 -4.37347 -0.305464
thorax -2.97122 -2.15753 2.70424
lowerneck -13.7133 2.58842 -7.27538
upperneck 19.8643 3.62762 11.3521
head 8.0223 2.62237 5.47511
rclavicle -4.17448e-014 7.15625e-015
rhumerus -71.2716 3.10431 -89.6806
rradius 81.287
rwrist 2.61941
rhand -36.4529 -16.25
rfingers 7.12502
rthumb -9.54681 -46.0137
lclavicle -4.17448e-014 7.15625e-015
lhumerus -31.5724 -28.279 92.9345
lradius 91.5195
lwrist -12.0694
lhand -37.8491 15.8474
lfingers 7.12502
lthumb -10.8937 45.5448
rfemur -53.7764 -13.712 23.4978
rtibia 78.0094
rfoot -168.335 4.97615
rtoes -8.07117
lfemur -3.46805 -10.6568 -24.9903
ltibia 36.1524
lfoot -16.5061 -6.65548
ltoes -25.1833
138
root 9.97339 17.4859 9.96673 -166.745 -8.65526 176.65
lowerback 7.47663 -3.16927 -4.33633
upperback 0.598674 -4.64018 -0.0459546
thorax -3.22531 -2.27152 2.83758
lowerneck -13.9538 2.87346 -6.95596
upperneck 20.474 4.04099 10.9969
head 8.24341 2.8209 5.37697
rclavicle 6.11263e-015 5.1684e-015
rhumerus -73.3726 3.16147 -89.7289
rradius 82.0509
rwrist 2.91907
rhand -35.7668 -15.5078
rfingers 7.12502
rthumb -8.8848 -45.3007
lclavicle 6.11263e-015 5.1684e-015
lhumerus -32.1201 -29.2241 92.8691
lradius 94.584
lwrist -12.7283
lhand -38.252 14.637
lfingers 7.12502
lthumb -11.2823 44.3135
rfemur -53.6836 -12.9427 24.171
rtibia 73.938
rfoot -168.356 6.38788
rtoes -7.77916
lfemur -1.39373 -11.7169 -24.7958
ltibia 34.3404
lfoot -13.825 -5.94053
ltoes -25.1946
